<?xml version="1.0" encoding="utf-8"?>
<!-- Generator: Adobe Illustrator 18.1.0, SVG Export Plug-In . SVG Version: 6.00 Build 0)  -->
<svg version="1.1" id="Layer_1" xmlns="http://www.w3.org/2000/svg" xmlns:xlink="http://www.w3.org/1999/xlink" x="0px" y="0px"
	 viewBox="-99 0 299 200" enable-background="new -99 0 299 200" xml:space="preserve">
<path fill="#C7C6C6" d="M66.8,146.7c-0.4-0.9-0.8-1.8-1.4-3.1c-0.2,0.8-0.3,1.2-0.5,1.7c-0.3-0.1-0.6-0.2-0.7-0.3
	c-0.6-2.9-3.1-2.2-4.9-2.8c-0.3-0.1-0.9,0.4-1.4,0.8c-2.1,1.8-3.7,1.6-5.8-0.2c-0.8-0.7-2.8-1.1-3.4-0.6c-2,1.5-2.8,0.5-3.5-1.1
	c-0.3-0.5-0.7-1-1.3-1.4c0.5,1.4,0.9,2.8,1.4,4.3c-0.1,0.1-0.3,0.1-0.4,0.2c-1.5-1.5-3.1-3-4.6-4.5c0.1-0.2,0.3-0.3,0.4-0.5
	c-0.2-0.1-0.4-0.2-0.6-0.2c-2.3,0-4.1,0-5.9-2.2c-2.2-2.8-5.4-4.6-8.2-6.9c-0.7-0.6-1.4-1.2-1.8-2c-0.3-0.6-0.2-1.4-0.3-2.2
	c-0.6,0-1.6-0.1-2.9-0.2c-0.3,2.8-2.4,2.2-4.2,1.5c-0.7-0.3-1.2-1.3-2-2.2c-1.5,1.5-3.6,0.3-5.6-0.3c-1.4-0.4-2.3-1.2-0.6-2.5
	c-1.1-1.1-2.5-2.1-0.2-4.1c-1.3,0.5-1.9,0.7-2.5,0.9c0.2,0.1,0.3,0.2,0.5,0.3c-0.4,1.2-0.8,2.3-1.3,3.6c0.5,0.1,1.2,0.2,1.9,0.3
	c-0.2,1.8-0.6,2-1.8,1.1s-2.3-1.9-3.5-2.9c-1.8-1.5-2.8-1.1-3.8,1.1c-0.3,0.8-1.2,1.6-1.9,1.7c-0.5,0.1-1.3-0.9-1.9-1.4
	c-0.3-0.3-0.4-0.8-0.7-1.1c-0.6-0.5-1.2-0.9-1.8-1.4c-0.3,0.6-0.7,1.1-0.8,1.7c0,1.6-0.9,2.1-2.3,2.3c-1.5,0.2-2.9,0.7-4.4,0.7
	c-0.8,0-1.8-0.6-2.5-1.2c-0.6-0.5-0.7-1.3-1.5-2.8c-0.4,1.1-0.7,1.8-1.1,2.6c0.4,0.6,1.1,1.5,1.8,2.5c-1,0.9-1.9,1.8-2.9,2.6
	c-1.5,1-3.1,0.4-4.3-0.7c-1.1-1.1-1.9-2.5-3.1-3.4c-1.5-1.2-1.9-2.3,0.1-3.8c-3.9-0.6-0.9-3.2-1.9-4.9c-0.7,0.6-1.3,1-2.2,1.7
	c-0.8-0.7-1.6-1.5-2.6-2.2c-0.6-0.4-1.5-0.6-2.2-0.8c0.3,0.8,0.5,1.6,0.8,2.4c0.1,0.2,0.5,0.3,0.7,0.5c-0.4,0.8-0.7,1.4-1,2
	c1.5,1.8,3,3.6,4.6,5.6c-0.8,0.3-1.2,0.6-1.5,0.5c-2.3-1.2-4.8-2.3-6.8-4c-0.8-0.6-1-2.7-0.7-3.9c2-5.9,3-12.2,6.6-17.5
	c0.1-0.2,0.3-0.4,0.3-0.6c-0.3-3.4,2.3-5,4.4-7.3c1.4,1.5,2.8,3,4.2,4.5c0.1-0.1,0.2-0.2,0.3-0.3c-0.5-1.2-1-2.5-1.6-3.9
	c0.2-0.2,0.7-0.5,1.3-0.9c0-0.1-0.1-0.2-0.2-0.3c-0.5,0.2-1,0.3-2,0.6c0.6-0.8,0.9-1.3,1.3-2c-0.7-0.1-1.4-0.2-2-0.3
	c-0.1-0.2-0.1-0.4-0.2-0.6c0.8-0.3,1.6-0.9,2.3-0.8c1.5,0.4,2.7,0.2,3.7-0.8c1.1-1,2-0.8,2.7,0.6c-0.6,0.5-1.2,0.9-1.8,1.4
	c0.1,0.1,0.2,0.3,0.3,0.4c0.8-0.4,1.6-0.9,2.8-1.6c0.3,1.6,0.6,3.1,0.9,4.8c0.7-1.8,0.6-3.5-0.6-5c-0.3-0.4-0.6-1.1-0.4-1.5
	c0.2-0.3,0.9-0.6,1.4-0.6c3.9,0.5,4,0.4,3.7-3.5c0-0.3,0.1-0.7-0.3-1.1c-0.1,0.7-0.2,1.5-0.4,2.2c-0.2,0.6-0.4,1.2-0.7,1.9
	c-0.5-0.3-0.9-0.6-1.5-0.7c-1.7-0.2-3.4-0.7-5-0.4c-1.6,0.4-2-0.3-2.5-1.4c2.1-2.1,2.4-4.8,2.3-7.5c-0.1-2.2,0.3-3.5,2.8-4
	c0.8-0.1,1.5-1.5,1.9-2.4c0.6-1.4,0.6-2.9,1.1-4.3c0.3-0.7,0.9-1.6,1.6-1.8c2.6-0.8,5.3-1.3,8-2c0.7-0.2,1.4-0.6,1.9-1
	c3.9-3.4,8-6.4,13.5-6.7c3.1-0.2,4.9,1.8,6.3,4.1c0.4,0.7,0.1,1.9-0.3,2.9c0.6,0.7,1.1,1.5,1.7,2.2c-1.2-0.3-2.3-1.3-3.1,0.1
	c1.1,0.4,2.2,0.8,3.9,1.4c-1.7,1.5-2.9,2.5-4.1,3.6c-1,0.9-2.1,1.8-2.9,2.9c-0.7,1-3.7,1.8-4.5,0.6c-1.5-2.2-2.9-0.5-4.2-0.1
	c0,0.2,0,1.6-0.3,2.8c1.1-1.2,2-2.2,3.1-3.5c0.6,0.9,1.3,1.6,2,2.6c0.3-0.1,0.9-0.5,1.3-0.4c0.6,0.1,1.5,0.9,1.4,0.9
	c-0.9,1.6,0.3,4.1-2.3,4.9c0.6,0,1.1-0.1,1.9-0.2c-1.1,1.5-2,2.7-3,4C4.9,82,5.1,82,5.1,82.1c0.8-0.6,1.6-1.2,2.3-2
	c0.5-0.6,0.9-1.3,1.2-2.1c0.3-0.9,0.4-1.9,0.6-2.8c0.9,0.4,1.7,0.9,2.9,1.5c-0.7-0.9-1.2-1.6-1.7-2.2c-1.3-1.3-1.2-2.1,0.4-2.9
	c0.4-0.2,1.1-0.4,1.3-0.7c1.2-1.9,2.6-2.3,4.5-0.7c0.1-0.3,0.2-0.5,0.3-0.7c-0.6-0.6-1.2-1.1-1.7-1.6c1.5-1.2,3.2-2.6,4.9-4.1
	c-1-1.3-2.1-2.8-3.3-4.3c0.4-0.5,0.7-0.9,1.1-1.5c0.3,0.1,0.5,0.1,0.6,0.3c2.6,2.8,7.4,2.5,9.9-0.3c1.7-1.9,3.7-3.5,5.6-4.9
	c1-0.2,2.4,0,3.1-0.6c3.3-2.7,7.4-3,11.3-3.5c2.3-0.3,4.7-0.6,7.1-0.7c1.2,0,2.4,0.5,3.6,0.9c0.8,0.2,1.6,0.4,2.4,0.8
	c3.2,1.2,6.3,2.5,9.5,3.7c0.6,0.2,1.1,0.4,1.6,0.6c-0.2,0.4-0.5,0.8-0.7,1.1c-0.9,0-1.9,0-2.9,0c-0.6,2.8-0.8,2.8-3.7,2.2
	c-0.7-0.1-1.5,0.4-2.2,0.9c2,0,3.9,0,5.9,0c0.4-0.4,0.8-1,1.4-1.4c0.7-0.4,1.5-0.4,2.5-0.6c1.5,1.2,1.6,2.5,0,3.6
	c-1.2,0.8-2.1,2.8-4,1.5c-0.3,0.6-0.9,1.1-1,1.8c-0.2,1,0,2.1,0,3.7c0.4-1.1,0.8-1.8,1.1-2.6c0.2-0.6,0.4-1.2,0.6-1.8
	c0.2,0,0.3,0.1,0.5,0.2c0.2,0.6,0.4,1.2,0.6,1.6c0.6-1.2,1-2.4,1.8-3c0.9-0.7,1.8-2.5,3.3-0.7c1.8,2,1.5,3.1,0.1,4.9
	c-1.2,1.5-1.6,3.5-2.5,5.2c-0.6,1.2-1.3,2.4-2.2,3.4c-0.7,0.8-1.6,1.5-2.6,1.9c-0.6,0.3-1.5,0-2.2-0.3c-0.6-0.2-1.2-0.6-1.8-0.9
	c-0.6,1.5-0.9,2.8-1.5,4.1c0.3,0.3,0.8,0.6,1.4,1.1c0.1-0.2,0.2-0.3,0.2-0.3c0-1.8,0.3-3.1,2.5-2.1c0.4,0.2,1.1,0.1,1.4-0.1
	c2.5-2.5,6.5-3.3,7.6-7.5c0.6-2.6,5-2.7,6.7-0.1c1.1,1.7,2,2.5,4.4,2.2c2.7-0.4,5.5,0.3,7.2,3.3c-1.2,0.4-2.4,0.7-3.4,1.2
	c-0.9,0.4-2,0.9-2.5,1.6c-1.2,2.1-2.1,4.3-3,6.3c0.6-0.4,1.5-0.8,2.2-1.6c0.5-0.6,0.6-1.6,0.9-2.5c0.2-0.6,0.3-1.5,0.7-1.6
	c1.8-0.8,3.8-1.3,6-2c0.6-4.4,3.1-6.7,7.1-6.1c-0.3,1.2-1,2.4-0.9,3.5c0.2,1.2,1,2.5,1.8,3.5c1.7,2,1.8,4.1,0,6.1
	c-0.8,0.8-1.4,1.8-2.2,2.6c-0.4,0.4-0.9,0.9-1.5,1c-2.4,0.5-4.6,2.2-5.8,4.7c0.8-0.3,1.3-0.6,2-0.8c-1.5,5.1-1.5,5.1-0.6,5.6
	c-0.6-1.9-0.2-3.3,1.8-4c0.3-0.1,0.2-1.5,0-2.3c0-1.7,1-2.3,2.8-2.3c1,0,2.2-0.6,2.9-1.2c2.8-2.7,5.8-2.6,8.1,0.6
	c1.1,1.5,2.4,2.3,4.2,2.5c1.3,0.2,2.6,1,3.9,1.5c0.6,0.2,1.3,0.5,1.9,0.3c3.1-0.9,6.2-1.8,9.2-2.8c0.5-0.2,1.2-1.1,1.2-1.6
	c0-1.6,0.8-2.3,2.2-2.8c3.1-1.1,7.2,0.1,9,2.8c0.4,0.6-0.2,1.8-0.2,2.7c0,0.7,0,1.5,0.2,2.2c0.3,1,1.1,2.1,0.9,3c-1,5-2,10.1-3.6,15
	c-0.7,2.2-2.6,4-4,5.9c-0.2,0.3-0.6,0.5-0.9,0.5c-3.7-0.2-6,2.5-8.5,4.5c-3,2.5-6.2,3.4-9.9,4c-5.3,0.9-10.6,2.1-15.7,3.9
	c-4,1.5-7.9,2.8-12.3,2.5c-1.2,0-2.4,0.6-3.6,1.1c-0.8,0.3-1.5,0.8-2.2,1.2c-2.2,1.2-4.4,2.3-6-0.8c-2.4,0-4.8-0.2-7.1,0
	c-0.3,0-0.7,1.8-0.6,2.8c0,0.5,0.9,1.5,1.1,1.5c0.9-0.3,1.6-0.9,2.5-1.5s1.7-1.6,2.6-1.7c0.8-0.1,2.2,0.8,2.3,1.4
	c0.1,1-0.5,2.2-1,3.2c-0.3,0.7-1,1.2-1.6,1.7c-2.5,2.5-2.8,2.5-5.4,0.4c-0.4-0.3-1.1-0.4-1.6-0.6c-0.1,0.6-0.3,1.2-0.3,1.7
	c0,1.4,0,2.8,0,4.3C67.2,146.7,67,146.7,66.8,146.7z"/>
<path fill="#767676" d="M58.9,74c-0.7,0.4-1.5,0.8-2.2,1.2c0,0.1,0.1,0.2,0.2,0.3c0.6-0.4,1.3-0.8,2-1.2c0.7-0.4,1.4-1,2.2-1.1
	c3.6-0.4,3.7-0.3,4.7,5.2c-1.6,0.1-3.2,0.6-4.7,0.3c-1.3-0.3-2.1,0-2.7,0.9c-1.8,2.2-4.5,2-6.8,2c-0.9,0-1.9-2-3-3.2
	c0,0-0.4,0.3-0.9,0.9c-1.8-3.9-6-4-9-6.1c-1.2-0.9-2.4-1.8-3.5-2.7c1.4-0.9,2.4-1.5,3.4-2c0.4-0.2,1-0.4,1.4-0.3
	c2.4,0.9,4.8,1.8,7,3.1c1.5,0.9,2.8,1.7,4.6,1.6c2.2-0.1,4.4,0.2,6.6,0.3C58.3,73.6,58.6,73.8,58.9,74z"/>
<path fill="#C7C6C6" d="M43.2,146.8c1.3-0.5,2.8,0.2,4.4,1.3c1.4,1,3.6,0.8,5.2,1.5c1.7,0.7,3.4,1.7,4.9,2.8
	c0.1,0.1-0.5,1.7-1.1,2.2c-1.2,1.1-2.7,1.9-4.3,0.9c-1.9-1.2-3.7-2.6-5.4-4.2C45.5,150,44.4,148.2,43.2,146.8z"/>
<path fill="#C7C6C6" d="M54.2,147.8c-2.2,1.4-5.3,0.9-7.5-1.1C49.6,144.2,49.7,144.2,54.2,147.8z"/>
<g>
	<rect x="28" y="88" fill="#EEEEEE" width="48" height="5"/>
	<polygon fill="#F7D71C" points="58.7,45.5 42.6,48.7 25,45.5 25,89.8 42.7,93 58.5,89.8 76,93 76,48.7 	"/>
	<polygon opacity="0.1" enable-background="new    " points="42,93 58,89.8 58,45.5 42,48.7 	"/>
	<g>
		<polygon fill="#FFFFFF" points="51.4,47 47.6,47.7 62.4,62.5 51.4,73.3 25,47.2 25,51.7 49.1,75.6 33.5,91.3 37.4,92 51.6,77.8 
			64.7,90.9 70.2,91.9 53.8,75.6 76,53.3 76,48.8 64.6,60.3 		"/>
	</g>
	<g>
		<polygon fill="#F7D71C" points="76,74.5 60.2,90.1 76,93 		"/>
		<polygon fill="#119BD1" points="76,65.5 50.1,91 50.8,91 58.8,89.6 60.3,90 76,74.5 		"/>
	</g>
	<ellipse opacity="0.2" enable-background="new    " cx="42.9" cy="69.2" rx="6.3" ry="3.2"/>
	<path fill="#E74C3C" d="M42.9,42.3c-4.4,0-7.9,3.5-7.9,7.9c0,0.5,0.1,1.1,0.2,1.6c0,0.2,0.6,1.6,0.6,1.6l7.1,14.2L50,53.4
		c0,0,0.6-1.3,0.6-1.6c0.1-0.5,0.2-1,0.2-1.6C50.8,45.9,47.3,42.3,42.9,42.3z M42.9,53.4c-1.7,0-3.2-1.4-3.2-3.2s1.4-3.2,3.2-3.2
		c1.7,0,3.2,1.4,3.2,3.2S44.7,53.4,42.9,53.4z"/>
</g>
</svg>
